<mxfile host="app.diagrams.net" modified="2020-03-30T09:12:06.284Z" agent="5.0 (Windows NT 6.1; Win64; x64) AppleWebKit/537.36 (KHTML, like Gecko) Chrome/75.0.3770.80 Safari/537.36" etag="mOCD0JlQJTDODLn12PQW" version="12.9.4" type="github">
  <diagram id="S-L6qJafo1AaRCqfo0ar" name="Page-1">
    <mxGraphModel dx="3282" dy="792" grid="1" gridSize="10" guides="1" tooltips="1" connect="1" arrows="1" fold="1" page="1" pageScale="1" pageWidth="827" pageHeight="1169" math="0" shadow="0">
      <root>
        <mxCell id="0" />
        <mxCell id="1" parent="0" />
        <mxCell id="RkWGnUQF84y7v4nED-ay-6" value="" style="whiteSpace=wrap;html=1;aspect=fixed;" vertex="1" parent="1">
          <mxGeometry x="-1620" y="220" width="260" height="260" as="geometry" />
        </mxCell>
        <mxCell id="1Kwhp8gOCEwcugElnqpb-1" value="客户已注册" style="rounded=0;whiteSpace=wrap;html=1;strokeColor=#BD7000;fillColor=#f0a30a;fontSize=16;" parent="1" vertex="1">
          <mxGeometry x="-890" y="400" width="120" height="60" as="geometry" />
        </mxCell>
        <mxCell id="1Kwhp8gOCEwcugElnqpb-2" value="客户已扫码" style="rounded=0;whiteSpace=wrap;html=1;strokeColor=#BD7000;fillColor=#f0a30a;fontSize=16;" parent="1" vertex="1">
          <mxGeometry x="-1120" y="400" width="120" height="60" as="geometry" />
        </mxCell>
        <mxCell id="1Kwhp8gOCEwcugElnqpb-3" value="押金已支付" style="rounded=0;whiteSpace=wrap;html=1;strokeColor=#BD7000;fillColor=#f0a30a;fontSize=16;" parent="1" vertex="1">
          <mxGeometry x="23" y="400" width="120" height="60" as="geometry" />
        </mxCell>
        <mxCell id="1Kwhp8gOCEwcugElnqpb-4" value="电池借出指令已发出" style="rounded=0;whiteSpace=wrap;html=1;strokeColor=#BD7000;fillColor=#f0a30a;fontSize=16;" parent="1" vertex="1">
          <mxGeometry x="253" y="400" width="120" height="60" as="geometry" />
        </mxCell>
        <mxCell id="1Kwhp8gOCEwcugElnqpb-5" value="电池已归还" style="rounded=0;whiteSpace=wrap;html=1;strokeColor=#BD7000;fillColor=#f0a30a;fontSize=16;" parent="1" vertex="1">
          <mxGeometry x="444" y="520" width="120" height="60" as="geometry" />
        </mxCell>
        <mxCell id="1Kwhp8gOCEwcugElnqpb-6" value="租借订单已生成" style="rounded=0;whiteSpace=wrap;html=1;strokeColor=#BD7000;fillColor=#f0a30a;fontSize=16;" parent="1" vertex="1">
          <mxGeometry x="-207" y="400" width="120" height="60" as="geometry" />
        </mxCell>
        <mxCell id="1Kwhp8gOCEwcugElnqpb-7" value="租金已结算" style="rounded=0;whiteSpace=wrap;html=1;strokeColor=#BD7000;fillColor=#f0a30a;fontSize=16;" parent="1" vertex="1">
          <mxGeometry x="693" y="400" width="120" height="60" as="geometry" />
        </mxCell>
        <mxCell id="1Kwhp8gOCEwcugElnqpb-8" value="订单已完结" style="rounded=0;whiteSpace=wrap;html=1;strokeColor=#BD7000;fillColor=#f0a30a;fontSize=16;" parent="1" vertex="1">
          <mxGeometry x="913" y="400" width="120" height="60" as="geometry" />
        </mxCell>
        <mxCell id="1Kwhp8gOCEwcugElnqpb-9" value="设备在线" style="rounded=0;whiteSpace=wrap;html=1;strokeColor=#7700CC;fillColor=#aa00ff;fontSize=16;fontColor=#ffffff;" parent="1" vertex="1">
          <mxGeometry x="-510" y="270" width="120" height="60" as="geometry" />
        </mxCell>
        <mxCell id="1Kwhp8gOCEwcugElnqpb-10" value="有可借电池" style="rounded=0;whiteSpace=wrap;html=1;strokeColor=#7700CC;fillColor=#aa00ff;fontSize=16;fontColor=#ffffff;" parent="1" vertex="1">
          <mxGeometry x="-350" y="270" width="120" height="60" as="geometry" />
        </mxCell>
        <mxCell id="1Kwhp8gOCEwcugElnqpb-11" value="押金已免除" style="rounded=0;whiteSpace=wrap;html=1;strokeColor=#BD7000;fillColor=#f0a30a;fontSize=16;" parent="1" vertex="1">
          <mxGeometry x="-0.5" y="320" width="120" height="60" as="geometry" />
        </mxCell>
        <mxCell id="1Kwhp8gOCEwcugElnqpb-12" value="收费策略已展示" style="rounded=0;whiteSpace=wrap;html=1;strokeColor=#BD7000;fillColor=#f0a30a;fontSize=16;" parent="1" vertex="1">
          <mxGeometry x="-660" y="400" width="120" height="60" as="geometry" />
        </mxCell>
        <mxCell id="1Kwhp8gOCEwcugElnqpb-13" value="广告已展示" style="rounded=0;whiteSpace=wrap;html=1;strokeColor=#BD7000;fillColor=#f0a30a;fontSize=16;" parent="1" vertex="1">
          <mxGeometry x="119.5" y="970" width="120" height="60" as="geometry" />
        </mxCell>
        <mxCell id="1Kwhp8gOCEwcugElnqpb-14" value="活动已生效" style="rounded=0;whiteSpace=wrap;html=1;strokeColor=#BD7000;fillColor=#f0a30a;fontSize=16;" parent="1" vertex="1">
          <mxGeometry x="119.5" y="690" width="120" height="60" as="geometry" />
        </mxCell>
        <mxCell id="1Kwhp8gOCEwcugElnqpb-15" value="定向活动已展示" style="rounded=0;whiteSpace=wrap;html=1;strokeColor=#BD7000;fillColor=#f0a30a;fontSize=16;" parent="1" vertex="1">
          <mxGeometry x="369.5" y="660" width="120" height="60" as="geometry" />
        </mxCell>
        <mxCell id="1Kwhp8gOCEwcugElnqpb-16" value="九宝箱活动已展示" style="rounded=0;whiteSpace=wrap;html=1;strokeColor=#BD7000;fillColor=#f0a30a;fontSize=16;" parent="1" vertex="1">
          <mxGeometry x="369.5" y="750" width="120" height="60" as="geometry" />
        </mxCell>
        <mxCell id="1Kwhp8gOCEwcugElnqpb-17" value="小程序活动已展示" style="rounded=0;whiteSpace=wrap;html=1;strokeColor=#BD7000;fillColor=#f0a30a;fontSize=16;" parent="1" vertex="1">
          <mxGeometry x="369.5" y="840" width="120" height="60" as="geometry" />
        </mxCell>
        <mxCell id="1Kwhp8gOCEwcugElnqpb-18" value="租借已确认" style="rounded=0;whiteSpace=wrap;html=1;strokeColor=#BD7000;fillColor=#f0a30a;fontSize=16;" parent="1" vertex="1">
          <mxGeometry x="-433.5" y="400" width="120" height="60" as="geometry" />
        </mxCell>
        <mxCell id="1Kwhp8gOCEwcugElnqpb-19" value="优惠规则" style="rounded=0;whiteSpace=wrap;html=1;strokeColor=#7700CC;fillColor=#aa00ff;fontSize=16;fontColor=#ffffff;" parent="1" vertex="1">
          <mxGeometry x="680" y="300" width="120" height="60" as="geometry" />
        </mxCell>
        <mxCell id="1Kwhp8gOCEwcugElnqpb-20" value="正常归还" style="rounded=0;whiteSpace=wrap;html=1;strokeColor=#7700CC;fillColor=#aa00ff;fontSize=16;fontColor=#ffffff;" parent="1" vertex="1">
          <mxGeometry x="913" y="300" width="120" height="60" as="geometry" />
        </mxCell>
        <mxCell id="1Kwhp8gOCEwcugElnqpb-21" value="意外情况" style="rounded=0;whiteSpace=wrap;html=1;strokeColor=#7700CC;fillColor=#aa00ff;fontSize=16;fontColor=#ffffff;" parent="1" vertex="1">
          <mxGeometry x="913" y="210" width="120" height="60" as="geometry" />
        </mxCell>
        <mxCell id="1Kwhp8gOCEwcugElnqpb-22" value="押金扣完" style="rounded=0;whiteSpace=wrap;html=1;strokeColor=#7700CC;fillColor=#aa00ff;fontSize=16;fontColor=#ffffff;" parent="1" vertex="1">
          <mxGeometry x="913" y="120" width="120" height="60" as="geometry" />
        </mxCell>
        <mxCell id="yvEMTXYwp8ZP1PnC-tuG-1" value="会员订单已生成" style="rounded=0;whiteSpace=wrap;html=1;strokeColor=#BD7000;fillColor=#f0a30a;fontSize=16;" parent="1" vertex="1">
          <mxGeometry x="-170" y="280" width="120" height="60" as="geometry" />
        </mxCell>
        <mxCell id="BPcbF-6O7Fa1xog5FoLp-1" value="会员规则" style="rounded=0;whiteSpace=wrap;html=1;strokeColor=#7700CC;fillColor=#aa00ff;fontSize=16;fontColor=#ffffff;" parent="1" vertex="1">
          <mxGeometry x="680" y="210" width="120" height="60" as="geometry" />
        </mxCell>
        <mxCell id="BPcbF-6O7Fa1xog5FoLp-2" value="产品已配置" style="rounded=0;whiteSpace=wrap;html=1;strokeColor=#BD7000;fillColor=#f0a30a;fontSize=16;" parent="1" vertex="1">
          <mxGeometry x="-1110" y="1230" width="120" height="60" as="geometry" />
        </mxCell>
        <mxCell id="BPcbF-6O7Fa1xog5FoLp-3" value="客户已下单" style="rounded=0;whiteSpace=wrap;html=1;strokeColor=#BD7000;fillColor=#f0a30a;fontSize=16;" parent="1" vertex="1">
          <mxGeometry x="-650" y="1230" width="120" height="60" as="geometry" />
        </mxCell>
        <mxCell id="BPcbF-6O7Fa1xog5FoLp-4" value="订单已支付" style="rounded=0;whiteSpace=wrap;html=1;strokeColor=#BD7000;fillColor=#f0a30a;fontSize=16;" parent="1" vertex="1">
          <mxGeometry x="-420" y="1230" width="120" height="60" as="geometry" />
        </mxCell>
        <mxCell id="BPcbF-6O7Fa1xog5FoLp-5" value="订单已发货" style="rounded=0;whiteSpace=wrap;html=1;strokeColor=#BD7000;fillColor=#f0a30a;fontSize=16;" parent="1" vertex="1">
          <mxGeometry x="-190" y="1230" width="120" height="60" as="geometry" />
        </mxCell>
        <mxCell id="BPcbF-6O7Fa1xog5FoLp-6" value="产品已展示" style="rounded=0;whiteSpace=wrap;html=1;strokeColor=#BD7000;fillColor=#f0a30a;fontSize=16;" parent="1" vertex="1">
          <mxGeometry x="-880" y="1230" width="120" height="60" as="geometry" />
        </mxCell>
        <mxCell id="BPcbF-6O7Fa1xog5FoLp-8" value="会员已开通" style="rounded=0;whiteSpace=wrap;html=1;strokeColor=#BD7000;fillColor=#f0a30a;fontSize=16;" parent="1" vertex="1">
          <mxGeometry x="-433.5" y="90" width="120" height="60" as="geometry" />
        </mxCell>
        <mxCell id="BPcbF-6O7Fa1xog5FoLp-9" value="扣款已成功" style="rounded=0;whiteSpace=wrap;html=1;strokeColor=#BD7000;fillColor=#f0a30a;fontSize=16;" parent="1" vertex="1">
          <mxGeometry x="-660" y="90" width="120" height="60" as="geometry" />
        </mxCell>
        <mxCell id="BPcbF-6O7Fa1xog5FoLp-10" value="免密支付已签约" style="rounded=0;whiteSpace=wrap;html=1;strokeColor=#BD7000;fillColor=#f0a30a;fontSize=16;" parent="1" vertex="1">
          <mxGeometry x="-890" y="90" width="120" height="60" as="geometry" />
        </mxCell>
        <mxCell id="BPcbF-6O7Fa1xog5FoLp-11" value="会员订单已生成" style="rounded=0;whiteSpace=wrap;html=1;strokeColor=#BD7000;fillColor=#f0a30a;fontSize=16;" parent="1" vertex="1">
          <mxGeometry x="-1120" y="90" width="120" height="60" as="geometry" />
        </mxCell>
        <mxCell id="BPcbF-6O7Fa1xog5FoLp-12" value="广告已配置" style="rounded=0;whiteSpace=wrap;html=1;strokeColor=#BD7000;fillColor=#f0a30a;fontSize=16;" parent="1" vertex="1">
          <mxGeometry x="-190" y="970" width="120" height="60" as="geometry" />
        </mxCell>
        <mxCell id="BPcbF-6O7Fa1xog5FoLp-13" value="广告已点击" style="rounded=0;whiteSpace=wrap;html=1;strokeColor=#BD7000;fillColor=#f0a30a;fontSize=16;" parent="1" vertex="1">
          <mxGeometry x="369.5" y="970" width="120" height="60" as="geometry" />
        </mxCell>
        <mxCell id="RkWGnUQF84y7v4nED-ay-2" value="收费策略已绑定" style="rounded=0;whiteSpace=wrap;html=1;strokeColor=#7700CC;fillColor=#aa00ff;fontSize=16;fontColor=#ffffff;" vertex="1" parent="1">
          <mxGeometry x="-1550" y="270" width="120" height="60" as="geometry" />
        </mxCell>
        <mxCell id="RkWGnUQF84y7v4nED-ay-3" value="设备已接入" style="rounded=0;whiteSpace=wrap;html=1;strokeColor=#BD7000;fillColor=#f0a30a;fontSize=16;" vertex="1" parent="1">
          <mxGeometry x="-1550" y="390" width="120" height="60" as="geometry" />
        </mxCell>
        <mxCell id="RkWGnUQF84y7v4nED-ay-5" value="客服已退款&lt;br&gt;（全额退、部分退、结单）" style="rounded=0;whiteSpace=wrap;html=1;strokeColor=#BD7000;fillColor=#f0a30a;fontSize=16;" vertex="1" parent="1">
          <mxGeometry x="1200" y="20" width="120" height="60" as="geometry" />
        </mxCell>
        <mxCell id="RkWGnUQF84y7v4nED-ay-7" value="电池已借出" style="rounded=0;whiteSpace=wrap;html=1;strokeColor=#BD7000;fillColor=#f0a30a;fontSize=16;" vertex="1" parent="1">
          <mxGeometry x="284" y="520" width="120" height="60" as="geometry" />
        </mxCell>
        <mxCell id="RkWGnUQF84y7v4nED-ay-8" value="电池归还消息已接收" style="rounded=0;whiteSpace=wrap;html=1;strokeColor=#BD7000;fillColor=#f0a30a;fontSize=16;" vertex="1" parent="1">
          <mxGeometry x="470" y="400" width="120" height="60" as="geometry" />
        </mxCell>
      </root>
    </mxGraphModel>
  </diagram>
</mxfile>
